<?xml version="1.0" encoding="utf-8"?>
<!-- Generator: Adobe Illustrator 25.0.1, SVG Export Plug-In . SVG Version: 6.00 Build 0)  -->
<svg version="1.1" id="Layer_1" xmlns="http://www.w3.org/2000/svg" xmlns:xlink="http://www.w3.org/1999/xlink" x="0px" y="0px"
	 viewBox="0 0 184.3 252.1" style="enable-background:new 0 0 184.3 252.1;" xml:space="preserve" preserveAspectRatio="none">
<style type="text/css">
	.st0{display:none;}
	.st1{display:inline;fill:#9153FF;}
	.st2{display:inline;}
	.st3{fill:#FFFFFF;}
</style>
<g id="Layer_2_1_" class="st0">
	<rect x="-60.6" y="-0.4" class="st1" width="285.3" height="252.5"/>
</g>
<g id="Layer_1_1_">
	<g id="male" class="st0">
		<g class="st2">
			<path d="M18.2,213.5c0.8-6.5,4.8-35.8,18.2-84.9c11.1-40.8,35-67.5,35.2-67.7l0.6-0.7l-8.9-10.4l53.1,0.4l-9.1,10.1l0.6,0.7
				c0.3,0.3,26.1,31.5,37.3,70.2c11,38.1,15.7,74.7,16.6,82.2c-6.7-1.5-36.5-7.9-68.8-7.9c-1.3,0-2.6,0-3.9,0
				C55.3,206,24.9,212.1,18.2,213.5z"/>
			<path class="st3" d="M65.5,50.8l48.6,0.4l-7,7.8l-1.2,1.3l1.1,1.3c0.3,0.3,26,31.4,37.1,69.8c10.4,36,15.1,70.8,16.4,80.6
				c-8.8-1.9-37.1-7.6-67.6-7.6c-1.3,0-2.6,0-3.9,0c-31.8,0.5-60.7,5.9-69.6,7.7c1.1-8.6,5.5-37.2,18-83.3
				c11-40.6,34.7-67.1,35-67.3l1.2-1.3l-1.1-1.3L65.5,50.8 M61.1,48.8l9.8,11.4c0,0-24.1,26.6-35.4,68.2
				c-15.4,56.5-18.4,86.4-18.4,86.4s33.6-7.7,71.9-8.3c1.3,0,2.6,0,3.9,0c36.8,0,69.9,8.1,69.9,8.1s-4.3-40.7-16.7-83.8
				c-11.3-39.3-37.5-70.5-37.5-70.5l10-11.1L61.1,48.8L61.1,48.8z"/>
		</g>
		<g class="st2">
			<path d="M118.6,248c-3.3,0-7.9-3.1-9.6-11.7c-3.4-16.9-18.1-89.7-18.1-89.7l-1-4.9l-1,4.9c0,0-14.7,72.8-18.1,89.7
				c-1.7,8.7-6.3,11.7-9.6,11.7c-1.9,0-3.7-0.9-5.1-2.5c-2.5-2.9-3.5-7.7-2.8-13.3c1-7.2,2.2-16,3.5-25.4c2.8-19.8,6-42.3,8.2-62.4
				c5.3-46.7,0.2-64.1,0-64.8l-0.3-1l-1,0.3c-0.1,0-8.1,2.6-14,5.4C44,87,40.1,91.2,38.9,96.1c-1.1,4.6,0.1,9.4,3.4,13.7
				c5.6,7.3,9.4,12,15.7,19c2,2.2,2.5,5.1,1.4,7.5c-1,2.3-3.2,3.8-5.6,3.8l0,0c-1.4,0-2.7-0.5-4.1-1.4c-9.9-6.8-17.5-15.7-22.5-26.2
				c-6.8-14.3-3.7-28.4,8.5-38.6c11.9-10,33.9-12.6,35.1-12.7H85l-4.1-1.9c-7-3.3-11.5-10.4-11.5-18.1c0-11,8.9-19.9,19.9-19.9
				s19.9,8.9,19.9,19.9c0,7.7-4.5,14.8-11.5,18.1l-4.1,1.9h15.2c1.2,0.1,23.2,2.8,35.1,12.7c12.2,10.2,15.3,24.3,8.5,38.6
				c-5,10.6-12.6,19.4-22.5,26.2c-1.3,0.9-2.7,1.4-4.1,1.4c-2.4,0-4.5-1.5-5.6-3.8c-1.1-2.5-0.6-5.3,1.4-7.5c6.3-7,10-11.7,15.7-19
				c3.3-4.2,4.5-9.1,3.4-13.6c-1.2-5-5-9.2-10.8-11.8c-5.9-2.8-14-5.3-14-5.4l-1-0.3l-0.3,1c-0.2,0.7-5.3,18.1,0,64.8
				c2.3,20,5.4,42.5,8.2,62.4c1.3,9.3,2.6,18.1,3.5,25.4c0.7,5.6-0.3,10.4-2.8,13.2C122.3,247.2,120.5,248,118.6,248z"/>
			<path class="st3" d="M89.5,22.3c10.4,0,18.9,8.5,18.9,18.9c0,7.3-4.3,14.1-10.9,17.2l-8,3.8l-8-3.8c-6.6-3.1-10.9-9.8-10.9-17.2
				C70.5,30.8,79,22.3,89.5,22.3 M109,62.2c1.6,0.2,23,2.8,34.5,12.5c11.8,9.9,14.8,23.6,8.2,37.4c-5,10.4-12.4,19.1-22.2,25.9
				c-1.2,0.8-2.4,1.2-3.5,1.2c-2,0-3.8-1.2-4.7-3.2c-1-2.1-0.5-4.5,1.3-6.5c6.3-7,10.1-11.7,15.7-19c3.5-4.5,4.7-9.6,3.6-14.5
				c-1.3-5.3-5.3-9.7-11.3-12.5s-13.8-5.3-14.2-5.4l-1.9-0.6l-0.6,1.9c-0.2,0.7-5.3,18.3-0.1,65.2c2.3,20.1,5.4,42.6,8.2,62.4
				c1.3,9.3,2.5,18.1,3.5,25.4c0.7,5.3-0.2,9.8-2.5,12.5c-1.2,1.4-2.7,2.1-4.3,2.1c-3,0-7-2.9-8.6-10.9c-3.4-16.7-17.9-89-18.1-89.7
				l-2-9.7l-2,9.7c-0.1,0.7-14.7,73-18.1,89.7c-1.6,8.1-5.7,10.9-8.6,10.9c-1.6,0-3.1-0.8-4.3-2.1c-2.3-2.6-3.2-7.2-2.5-12.5
				c1-7.2,2.2-16,3.5-25.4c2.8-19.9,6-42.4,8.2-62.4c5.3-46.9,0.2-64.5-0.1-65.2l-0.6-1.9l-1.9,0.6c-0.3,0.1-8.2,2.6-14.2,5.4
				s-10,7.2-11.3,12.5c-1.2,4.9,0.1,10,3.6,14.5c5.6,7.3,9.4,12,15.7,19c1.8,2,2.2,4.3,1.3,6.5c-0.9,1.9-2.7,3.2-4.7,3.2
				c-1.2,0-2.4-0.4-3.5-1.2c-9.8-6.7-17.2-15.4-22.2-25.9c-6.6-13.9-3.6-27.5,8.2-37.4C48,65.1,69.3,62.4,71,62.2h9.6h9l0,0h8.7H109
				 M89.5,20.3c-11.6,0-20.9,9.4-20.9,20.9c0,8.4,4.9,15.6,12.1,19H71c0,0-23.1,2.4-35.6,13c-14,11.8-14.9,26.9-8.7,39.8
				s15,21.2,22.9,26.6c1.6,1.1,3.2,1.6,4.7,1.6c5.8,0,9.9-7.4,4.9-13c-6.5-7.2-10.3-12.1-15.6-18.9c-6.6-8.6-3.9-18.9,7-24
				c6-2.8,13.9-5.3,13.9-5.3s5.3,17.3,0,64.4c-3.4,29.7-8.8,65.5-11.7,87.8C51.1,243,56,249,61.3,249c4.3,0,8.9-3.9,10.6-12.5
				c3.4-16.9,18.1-89.7,18.1-89.7s14.7,72.8,18.1,89.7c1.7,8.6,6.3,12.5,10.6,12.5c5.3,0,10.2-6.1,8.8-16.9
				c-2.9-22.2-8.4-58-11.7-87.8c-5.3-47.1,0-64.4,0-64.4s8,2.5,13.9,5.3c10.9,5.1,13.6,15.4,7,24c-5.3,6.9-9.1,11.7-15.6,18.9
				c-5,5.6-0.9,13,4.9,13c1.5,0,3.1-0.5,4.7-1.6c7.9-5.4,16.7-13.7,22.9-26.6s5.3-28.1-8.7-39.8c-12.5-10.5-35.7-13-35.7-13H98.4
				c7.1-3.3,12.1-10.6,12.1-19C110.4,29.7,101,20.3,89.5,20.3L89.5,20.3z"/>
		</g>
	</g>
	<g id="Layer_5">
		<path class="st3" d="M-0.2-0.4L0,252.1h184.3V0L-0.2-0.4z M91.8,1.1c11.6,0,20.8,9.5,21,21c0.2,8.9-6.1,16.1-12.1,19.1l-8.9,4.2
			l-8.9-4.2c-7.4-3.6-12.1-13.3-12.1-19C70.7,10.6,80.2,1.1,91.8,1.1z M119.2,33.3l-9,10.1h-8.5c4.6-2.1,8.3-5.7,10.7-10.1
			C112.4,33.3,119.2,33.3,119.2,33.3z M71.1,32.8c2.3,4.6,6.2,8.2,10.9,10.5h-7.9l-8.9-10.4L71.1,32.8z M52.9,234.9
			c1-7.7,10.6-75.5,13-97.5c5.9-52.2-0.8-74.6-0.8-74.6s-11.2,3.4-17.7,6.7c-6.7,3.1-11.1,8-12.6,13.9c-1.3,5.2,0,10.9,3.7,15.8
			c4.7,7.3,11.2,14.2,17.6,21.5c2,2.2,2.3,5,1.2,7.4c-1.8,3.4-6.8,3.7-9,2.1c-5.2-3.7-20.3-17.8-24.6-27.8
			c-7.3-15.5-4-31.6,9.1-42.6c10.8-9.1,29.1-13.7,39.4-13.9c4.5-0.1,19.6,0,19.6,0s15.4,0,20.1,0.2c9.8,0,28.2,4.2,39.5,13.8
			c13.1,11,16.5,26.2,9.1,41.6c-5.4,10.4-15.9,22.9-23.9,28.1c-3.8,2.3-7.4,2.8-9.8-1.4c-1.1-2.4-0.7-5.2,1.2-7.4
			c6.1-7.1,14.1-16.5,17.7-21.6c3.6-4.9,4.9-10.5,3.7-15.7c-1.4-5.9-5.9-10.8-12.6-13.9c-7.8-3.8-17.8-6.7-17.8-6.7
			s-6.6,22.5-0.8,74.6c2.4,21.9,12,89.9,13.1,97.5c1.2,5.5,0.5,15-5.8,16.1c-0.4,0.1-0.9,0.1-1.4,0.1c-4.6-0.1-7.8-3.2-9.6-12.1
			c-1.2-6-22.2-110.5-22.2-110.5S71.4,233.1,70.1,239c-1.8,9-6.3,12.1-9.6,12.1C51.7,251.1,52.1,240.8,52.9,234.9z M13.9,212.3
			c1.2-9.6,6-41.3,19.9-92.4c11.7,11.8,14.3,13.3,18.7,13.5c4.8,0.3,11.7-7.1,5-15.1c-7-7.8-10.7-12.5-16.4-19.8
			C45.7,86.7,51.3,76.3,56.3,68c4.1-1.6,7.5-2.7,7.5-2.7s5.9,19.2,0,71.6c-2.6,22.2-6.1,47.5-9.1,69.2
			C35.3,208.2,20.2,211.1,13.9,212.3z M171,212.1c-6.5-1.3-21.7-4.4-40.9-6.4c-3-21.6-6.6-46.6-9-68.7c-5.9-52.4,0-71.6,0-71.6
			s2.8,0.9,6.3,2.2c5.3,8.6,11.3,19.1,16.6,31c-6,7.4-10.9,12.9-16.9,20.5c-5.6,6.2-1,14.8,5.5,14.5c4.7-0.2,14.3-9.1,19-15.3
			C160.9,154.4,167.9,186.8,171,212.1z M79.5,204.2c5.9-29.4,13-64.5,13-64.5s7,35,12.9,64.3C102.1,203.8,83.3,204,79.5,204.2z"/>
	</g>
	<path class="st3" d="M125.6,250.9c-0.4,0.1-0.9,0.1-1.4,0.1L125.6,250.9z"/>
</g>
</svg>
