<?xml version="1.0" encoding="utf-8"?>
<!-- Generator: Adobe Illustrator 25.0.1, SVG Export Plug-In . SVG Version: 6.00 Build 0)  -->
<svg version="1.1" id="Layer_1" xmlns="http://www.w3.org/2000/svg" xmlns:xlink="http://www.w3.org/1999/xlink" x="0px" y="0px"
	 viewBox="0 0 159.4 252.1" style="enable-background:new 0 0 159.4 252.1;" xml:space="preserve" preserveAspectRatio="none">
<style type="text/css">
	.st0{display:none;}
	.st1{display:inline;}
	.st2{fill:#FFFFFF;}
</style>
<g id="male" class="st0">
	<g class="st1">
		<path d="M5.8,213.5c0.8-6.5,4.8-35.8,18.2-84.9c11.1-40.8,35-67.5,35.2-67.7l0.6-0.7l-8.9-10.4l53.1,0.4l-9.1,10.1l0.6,0.7
			c0.3,0.3,26.1,31.5,37.3,70.2c11,38.1,15.7,74.7,16.6,82.2c-6.7-1.5-36.5-7.9-68.8-7.9c-1.3,0-2.6,0-3.9,0
			C42.9,206,12.5,212.1,5.8,213.5z"/>
		<path class="st2" d="M53.1,50.8l48.6,0.4l-7,7.8l-1.2,1.3l1.1,1.3c0.3,0.3,26,31.4,37.1,69.8c10.4,36,15.1,70.8,16.4,80.6
			c-8.8-1.9-37.1-7.6-67.6-7.6c-1.3,0-2.6,0-3.9,0c-31.8,0.5-60.7,5.9-69.6,7.7c1.1-8.6,5.5-37.2,18-83.3c11-40.6,34.7-67.1,35-67.3
			l1.2-1.3l-1.1-1.3L53.1,50.8 M48.7,48.8l9.8,11.4c0,0-24.1,26.6-35.4,68.2C7.7,184.9,4.7,214.8,4.7,214.8s33.6-7.7,71.9-8.3
			c1.3,0,2.6,0,3.9,0c36.8,0,69.9,8.1,69.9,8.1s-4.3-40.7-16.7-83.8c-11.3-39.3-37.5-70.5-37.5-70.5l10-11.1L48.7,48.8L48.7,48.8z"
			/>
	</g>
	<g class="st1">
		<path d="M106.2,248c-3.3,0-7.9-3.1-9.6-11.7c-3.4-16.9-18.1-89.7-18.1-89.7l-1-4.9l-1,4.9c0,0-14.7,72.8-18.1,89.7
			c-1.7,8.7-6.3,11.7-9.6,11.7c-1.9,0-3.7-0.9-5.1-2.5c-2.5-2.9-3.5-7.7-2.8-13.3c1-7.2,2.2-16,3.5-25.4c2.8-19.8,6-42.3,8.2-62.4
			c5.3-46.7,0.2-64.1,0-64.8l-0.3-1l-1,0.3c-0.1,0-8.1,2.6-14,5.4c-5.7,2.7-9.6,6.9-10.8,11.8c-1.1,4.6,0.1,9.4,3.4,13.7
			c5.6,7.3,9.4,12,15.7,19c2,2.2,2.5,5.1,1.4,7.5c-1,2.3-3.2,3.8-5.6,3.8l0,0c-1.4,0-2.7-0.5-4.1-1.4c-9.9-6.8-17.5-15.7-22.5-26.2
			C8,98.2,11.1,84.1,23.3,73.9c11.9-10,33.9-12.6,35.1-12.7h14.2l-4.1-1.9C61.5,56,57,48.9,57,41.2c0-11,8.9-19.9,19.9-19.9
			s19.9,8.9,19.9,19.9c0,7.7-4.5,14.8-11.5,18.1l-4.1,1.9h15.2c1.2,0.1,23.2,2.8,35.1,12.7c12.2,10.2,15.3,24.3,8.5,38.6
			c-5,10.6-12.6,19.4-22.5,26.2c-1.3,0.9-2.7,1.4-4.1,1.4c-2.4,0-4.5-1.5-5.6-3.8c-1.1-2.5-0.6-5.3,1.4-7.5c6.3-7,10-11.7,15.7-19
			c3.3-4.2,4.5-9.1,3.4-13.6c-1.2-5-5-9.2-10.8-11.8c-5.9-2.8-14-5.3-14-5.4l-1-0.3l-0.3,1c-0.2,0.7-5.3,18.1,0,64.8
			c2.3,20,5.4,42.5,8.2,62.4c1.3,9.3,2.6,18.1,3.5,25.4c0.7,5.6-0.3,10.4-2.8,13.2C109.9,247.2,108.1,248,106.2,248z"/>
		<path class="st2" d="M77.1,22.3c10.4,0,18.9,8.5,18.9,18.9c0,7.3-4.3,14.1-10.9,17.2l-8,3.8l-8-3.8c-6.6-3.1-10.9-9.8-10.9-17.2
			C58.1,30.8,66.6,22.3,77.1,22.3 M96.6,62.2c1.6,0.2,23,2.8,34.5,12.5c11.8,9.9,14.8,23.6,8.2,37.4c-5,10.4-12.4,19.1-22.2,25.9
			c-1.2,0.8-2.4,1.2-3.5,1.2c-2,0-3.8-1.2-4.7-3.2c-1-2.1-0.5-4.5,1.3-6.5c6.3-7,10.1-11.7,15.7-19c3.5-4.5,4.7-9.6,3.6-14.5
			c-1.3-5.3-5.3-9.7-11.3-12.5s-13.8-5.3-14.2-5.4l-1.9-0.6l-0.6,1.9c-0.2,0.7-5.3,18.3-0.1,65.2c2.3,20.1,5.4,42.6,8.2,62.4
			c1.3,9.3,2.5,18.1,3.5,25.4c0.7,5.3-0.2,9.8-2.5,12.5c-1.2,1.4-2.7,2.1-4.3,2.1c-3,0-7-2.9-8.6-10.9c-3.4-16.7-17.9-89-18.1-89.7
			l-2-9.7l-2,9.7c-0.1,0.7-14.7,73-18.1,89.7c-1.6,8.1-5.7,10.9-8.6,10.9c-1.6,0-3.1-0.8-4.3-2.1c-2.3-2.6-3.2-7.2-2.5-12.5
			c1-7.2,2.2-16,3.5-25.4c2.8-19.9,6-42.4,8.2-62.4c5.3-46.9,0.2-64.5-0.1-65.2l-0.6-1.9l-1.9,0.6c-0.3,0.1-8.2,2.6-14.2,5.4
			S27,90.7,25.7,96c-1.2,4.9,0.1,10,3.6,14.5c5.6,7.3,9.4,12,15.7,19c1.8,2,2.2,4.3,1.3,6.5c-0.9,1.9-2.7,3.2-4.7,3.2
			c-1.2,0-2.4-0.4-3.5-1.2c-9.8-6.7-17.2-15.4-22.2-25.9c-6.6-13.9-3.6-27.5,8.2-37.4c11.5-9.6,32.8-12.3,34.5-12.5h9.6h9l0,0h8.7
			L96.6,62.2 M77.1,20.3c-11.6,0-20.9,9.4-20.9,20.9c0,8.4,4.9,15.6,12.1,19h-9.7c0,0-23.1,2.4-35.6,13C9,85,8.1,100.1,14.3,113
			s15,21.2,22.9,26.6c1.6,1.1,3.2,1.6,4.7,1.6c5.8,0,9.9-7.4,4.9-13c-6.5-7.2-10.3-12.1-15.6-18.9c-6.6-8.6-3.9-18.9,7-24
			c6-2.8,13.9-5.3,13.9-5.3s5.3,17.3,0,64.4c-3.4,29.7-8.8,65.5-11.7,87.8C38.7,243,43.6,249,48.9,249c4.3,0,8.9-3.9,10.6-12.5
			c3.4-16.9,18.1-89.7,18.1-89.7s14.7,72.8,18.1,89.7c1.7,8.6,6.3,12.5,10.6,12.5c5.3,0,10.2-6.1,8.8-16.9
			c-2.9-22.2-8.4-58-11.7-87.8c-5.3-47.1,0-64.4,0-64.4s8,2.5,13.9,5.3c10.9,5.1,13.6,15.4,7,24c-5.3,6.9-9.1,11.7-15.6,18.9
			c-5,5.6-0.9,13,4.9,13c1.5,0,3.1-0.5,4.7-1.6c7.9-5.4,16.7-13.7,22.9-26.6s5.3-28.1-8.7-39.8c-12.5-10.5-35.7-13-35.7-13H86
			c7.1-3.3,12.1-10.6,12.1-19C98,29.7,88.6,20.3,77.1,20.3L77.1,20.3z"/>
	</g>
</g>
<g id="Layer_5">
	<path class="st2" d="M-0.3-0.4L0,251.1h159.3V0L-0.3-0.4z M79.4,1.1c11.6,0,21,9.5,21,21c0,3.1-0.7,6-1.9,8.8
		c-0.3,0.8-0.8,1.6-1.2,2.2c-2.1,3.4-5.2,6.3-9,8.1l-8.9,4.2l-8.9-4.2c-3.9-1.8-7.1-4.8-9.2-8.3c-0.4-0.8-0.8-1.4-1.1-2.2
		c-1.1-2.7-1.8-5.5-1.8-8.5C58.3,10.6,67.8,1.1,79.4,1.1z M106.8,33.3L99,42l-1.2,1.4h-8.5c4.6-2.1,8.3-5.7,10.7-10.1
		C100,33.3,106.8,33.3,106.8,33.3z M58.7,32.8c2.3,4.6,6.2,8.2,10.9,10.5h-7.9l-1.2-1.4l-7.7-9L58.7,32.8L58.7,32.8z M43.9,68
		c4.1-1.6,7.5-2.7,7.5-2.7s5.9,19.2,0,71.6c-2.6,22.2-6.1,47.5-9.1,69.2c-19.4,2.1-34.5,5-40.8,6.2c1.2-9.6,6-41.3,19.9-92.4
		c4.4,4.9,9,8.7,13.5,11.7c1.8,1.2,3.6,1.8,5.2,1.8c6.5,0,11-8.2,5.5-14.5c-7-7.8-11.2-13.1-16.9-20.4C33.3,86.7,38.9,76.3,43.9,68z
		 M83.2,203.8c-1.4,0-2.9,0-4.3,0c-4,0.1-8,0.2-11.8,0.4c5.9-29.4,13-64.5,13-64.5s7,35,12.9,64.3C89.7,203.8,86.5,203.8,83.2,203.8
		z M116.6,248.7c-1.3,1.6-3,2.3-4.8,2.3c-3.3,0-7.8-3.2-9.6-12.1c-1.2-6-3.7-18.5-6.6-32.7c-0.1-0.8-0.3-1.4-0.4-2.2
		c-5.9-29.1-12.9-64.3-13-64.8L80,128.4l-2.2,10.8c-0.1,0.6-7.2,35.8-13.1,65.2c-0.1,0.8-0.3,1.4-0.4,2.2c-2.8,14-5.3,26.5-6.6,32.4
		c-1.8,9-6.3,12.1-9.6,12.1c-1.8,0-3.4-0.9-4.8-2.3c-2.6-2.9-3.6-8-2.8-13.9c1-7.7,2.3-16.9,3.7-26.7c0.1-0.4,0.1-1,0.2-1.4
		c0-0.2,0.1-0.6,0.1-0.8c3.1-21.9,6.6-46.6,9-68.6c5.9-52.2,0.2-71.7-0.1-72.5l-0.7-2.1l-2.1,0.7c-0.2,0.1-2.2,0.7-4.9,1.7
		c-1.1,0.3-2.2,0.8-3.4,1.2c-2.4,0.9-5,2-7.3,3.1c-6.7,3.1-11.1,8-12.6,13.9c-1.3,5.2,0,10.9,3.7,15.8c0.1,0.1,0.2,0.2,0.2,0.3
		c0.4,0.6,0.9,1.1,1.3,1.7c5.6,7.2,9.7,12.2,16.1,19.5c2,2.2,2.4,4.8,1.3,7.2c-1,2.1-3,3.6-5.2,3.6c-1.3,0-2.7-0.4-3.9-1.3
		c-5.2-3.7-9.9-7.8-13.9-12.5c-0.6-0.7-1.2-1.3-1.7-2c-3.6-4.3-6.6-9.1-9-14.3c-7.3-15.5-4-30.6,9.1-41.6
		c10.8-9.1,29.5-12.6,36-13.6c1.2-0.2,2-0.2,2.3-0.3h0.9h9.8h10h9.7h10.2h1.6c0.2,0,0.7,0.1,1.3,0.2c5.6,0.8,25.6,4.2,36.9,13.7
		c13.1,11,16.5,26.2,9.1,41.6c-2.3,4.9-5.2,9.5-8.5,13.7c-0.6,0.7-1.1,1.3-1.7,2c-4.1,4.9-9,9.2-14.6,13c-1.3,0.9-2.6,1.3-3.9,1.3
		c-2.2,0-4.2-1.3-5.1-3.6c-1.1-2.4-0.6-5,1.3-7.2c6.6-7.2,10.6-12.3,16.2-19.6c0.4-0.6,0.8-1,1.2-1.6c0.1-0.1,0.2-0.3,0.3-0.4
		c3.6-4.9,4.9-10.5,3.7-15.7c-1.4-5.9-5.9-10.8-12.6-13.9c-2.8-1.2-5.9-2.6-8.6-3.6c-1.2-0.4-2.4-0.9-3.4-1.2
		c-2.1-0.8-3.6-1.2-3.7-1.2l-2.1-0.7l-0.7,2.1c-0.2,0.8-5.9,20.4-0.1,72.5c2.4,21.9,5.9,46.5,9,68.2c0,0.4,0.1,0.8,0.2,1.2
		c0,0.3,0.1,0.7,0.1,1c1.4,10,2.7,19.5,3.8,27.1C120.3,240.7,119.2,245.8,116.6,248.7z M117.7,205.7c-3-21.6-6.6-46.6-9-68.7
		c-5.9-52.4,0-71.6,0-71.6s2.8,0.9,6.3,2.2c5.3,8.6,11.3,19.1,16.6,31c-5.7,7.3-9.9,12.6-16.9,20.5c-5.6,6.2-1,14.5,5.5,14.5
		c1.7,0,3.4-0.6,5.2-1.8c4.6-3.2,9.5-7.2,14-12.5c0.3,1.1,0.7,2.1,1,3.2c11.6,40,16.8,78.6,18.2,89.6
		C152.1,210.8,136.9,207.7,117.7,205.7z"/>
</g>
</svg>
