<?xml version="1.0" encoding="utf-8"?>
<!-- Generator: Adobe Illustrator 25.1.0, SVG Export Plug-In . SVG Version: 6.00 Build 0)  -->
<svg version="1.1" id="Layer_1" xmlns="http://www.w3.org/2000/svg" xmlns:xlink="http://www.w3.org/1999/xlink" x="0px" y="0px"
	 viewBox="0 0 15 33.4" style="enable-background:new 0 0 15 33.4;" xml:space="preserve">
<style type="text/css">
	.st0{fill:#FFFFFF;}
</style>
<ellipse class="st0" cx="7.4" cy="3.2" rx="3.2" ry="3.2"/>
<path class="st0" d="M1.9,21.7c0.1,0,0.2,0,0.2,0c0.6-0.1,1-0.7,0.9-1.4c-0.5-2.5-0.7-4.4-0.7-5.9c0-1.3,0.2-2.2,0.4-2.9
	c0.3-0.8,0.6-1.2,0.9-1.5v5.6v2.7v12.4c0,1,0.8,1.8,1.8,1.8s1.8-0.8,1.8-1.8V19.5h0.7v11.3c0,1,0.8,1.8,1.8,1.8s1.8-0.8,1.8-1.8
	V18.4v-2.7v-5.6c0.2,0.1,0.4,0.3,0.6,0.7c0.4,0.6,0.7,1.8,0.7,3.7c0,1.5-0.2,3.4-0.7,5.9c-0.1,0.6,0.3,1.2,0.9,1.4
	c0.1,0,0.2,0,0.2,0c0.5,0,1-0.4,1.1-0.9c0.6-2.6,0.8-4.7,0.8-6.4c0-1.5-0.2-2.6-0.5-3.6c-0.4-1.4-1.2-2.3-2-2.8
	c-0.8-0.5-1.6-0.6-2-0.6c0,0-0.1,0-0.1,0c0,0-0.1,0-0.1,0H4.7c0,0-0.1,0-0.1,0c0,0,0,0-0.1,0c-0.3,0-0.7,0-1.2,0.2
	C2.5,7.9,1.6,8.5,1,9.6c-0.6,1.1-1,2.6-1,4.8c0,1.7,0.2,3.8,0.8,6.4C0.9,21.4,1.4,21.7,1.9,21.7z"/>
</svg>
