<?xml version="1.0" encoding="utf-8"?>
<!-- Generator: Adobe Illustrator 25.1.0, SVG Export Plug-In . SVG Version: 6.00 Build 0)  -->
<svg version="1.1" id="Layer_1" xmlns="http://www.w3.org/2000/svg" xmlns:xlink="http://www.w3.org/1999/xlink" x="0px" y="0px"
	 viewBox="0 0 16.9 33.4" style="enable-background:new 0 0 16.9 33.4;" xml:space="preserve">
<style type="text/css">
	.st0{fill:#FFFFFF;}
</style>
<ellipse class="st0" cx="8.4" cy="3.8" rx="3.2" ry="3.2"/>
<path class="st0" d="M12,8.3c-0.2-0.1-0.3-0.2-0.5-0.2l0,0c0,0-1-0.5-3.1-0.5S5.3,8.1,5.3,8.1l0,0C5.2,8.1,5,8.2,4.9,8.3
	c-0.6,0.4-1.4,1.3-2.3,3.1c-0.8,1.8-1.7,4.7-2.6,9.1c-0.1,0.5,0.2,1,0.7,1.1c0.1,0,0.1,0,0.2,0c0.4,0,0.8-0.3,0.9-0.8
	c1-5.3,2.1-8.1,2.9-9.6L2.3,23.4h3v8.4c0,0.8,0.6,1.4,1.4,1.4c0.8,0,1.4-0.6,1.4-1.4v-8.4h0.5v8.4c0,0.8,0.6,1.4,1.4,1.4
	c0.8,0,1.4-0.6,1.4-1.4v-8.4h3l-2.4-12.1c0.1,0.2,0.3,0.5,0.4,0.8c0.8,1.6,1.7,4.3,2.5,8.8c0.1,0.4,0.5,0.8,0.9,0.8
	c0.1,0,0.1,0,0.2,0c0.5-0.1,0.8-0.6,0.7-1.1c-1.1-6-2.3-9-3.4-10.7C12.9,9,12.4,8.6,12,8.3z"/>
</svg>
