<?xml version="1.0" encoding="utf-8"?>
<!-- Generator: Adobe Illustrator 25.1.0, SVG Export Plug-In . SVG Version: 6.00 Build 0)  -->
<svg version="1.1" id="Layer_1" xmlns="http://www.w3.org/2000/svg" xmlns:xlink="http://www.w3.org/1999/xlink" x="0px" y="0px"
	 viewBox="0 0 333 335.3" style="enable-background:new 0 0 333 335.3;" xml:space="preserve">
<style type="text/css">
	.st0{fill-rule:evenodd;clip-rule:evenodd;fill:#FFFFFF;}
</style>
<g>
	<path class="st0" d="M167,8c87,0,158,71,158,159c0,87-71,158-158,158C79,325,8,254,8,167C8,79,79,8,167,8z M136,162c0,0-6-1-7-1
		c-10,2-10,0-1,6c6,4,4,4,10,3c2,1,4,1,6,2c0,1,0,3,0,4c0,0,5,3,6,3h8c1,0,9-5-5-9c-2,0-5,0-8,1c-1-2-2-4-4-6
		C141,165,135,162,136,162z M290,88c14,23,23,50,23,79c0,8-1,17-2,25c-7-6-14-11-15-12c-3-3-3,2-5,8c-1,7-9,1-15,1s-10-8-10-8
		c-11-9-8-14-8-28c0-4,2-9,5-11c7-8,1-13,9-19c3-2,14-5,14-5c6-8,9-10-6-7c-1,1-7,0-10-2c-4-3,5-5,5-5c4-5,8-9,12-13
		C288,90,289,89,290,88z M167,21c14,0,27,2,40,5c3,4,8,10,9,11s4,9,4,9c-6,9-8,14-21,8c-4-1-11-11-11-11s-11-12-13-13
		c-4-3-10-1-13,4c2,3,3,5,5,8c9,0,9-2,12,5c-3,1-6,2-10,3c-9,6-6,6-16-1c0,0-6-7-7-8s-5-10-7-13c0-1-1-3,0-5C148,22,157,21,167,21z
		 M172,313c-10,0-20-1-31-2c1-7,1-13,1-19c0-16,4-19-9-28c-3-5-7-11-11-16c-9-9-6-8-1-20c1-5,2-10,3-14c-2-5-3-10-5-15
		c-4-4-8-9-12-13c-22-6-21-3-37-20c-3-5-6-10-10-15c-11-13-9-11-13-27c-1-7-2-14-3-20c-1-4-2-8-3-11c20-34,53-59,92-68
		c-1,5-2,10-3,16c-24,19-36,24-7,35c7,11,5,16,14,9c0-6-1-12-2-18c18-12,13-10,34,1c3,3,6,6,9,9c14,6,15,3,3,12c-3-1-7-1-11-2
		c-2,2-4,4-6,6c5,11,8,10-3,13c-3,2-6,5-9,7c-4,0-8,0-12,0c0,0,0,12,0,14c0,3-9,11-9,11s-5,7-2,11c2,4-3,7-3,7c-3-3-5-7-8-10
		c-4,0-9,1-14,2c-3,2-6,3-9,5c-1,3-2,7-2,10c1,5,2,10,4,15c2,0,5,0,8-1c0-15-3-15,9-5c1,3,1,6,1,10c4,1,7,2,10,3c1,3,1,7,1,10
		c5,4,10,7,15,10c11,2,23,2,32,9c7,4,14,7,22,10c0,3,1,6,2,9c4,1,9,1,13,1c5,1,10,1,15,1c0,3,0,6,0,9c-2,17-3,14-15,25
		c-4,3-8,6-12,10c-10,14-7,12-23,18C174,302,173,308,172,313z"/>
</g>
</svg>
