<?xml version="1.0" encoding="utf-8"?>
<!-- Generator: Adobe Illustrator 25.1.0, SVG Export Plug-In . SVG Version: 6.00 Build 0)  -->
<svg version="1.1" id="Layer_1" xmlns="http://www.w3.org/2000/svg" xmlns:xlink="http://www.w3.org/1999/xlink" x="0px" y="0px"
	 viewBox="0 0 57 58" style="enable-background:new 0 0 57 58;" xml:space="preserve">
<style type="text/css">
	.st0{fill-rule:evenodd;clip-rule:evenodd;fill:#e88f1c}
</style>
<desc>Created with Sketch.</desc>
<g>
	<g transform="translate(-722.000000, -461.000000)">
		<g transform="translate(722.000000, 461.000000)">
			<path class="st0" d="M6,20.4c-0.1,0-0.3,0-0.4-0.1c-0.5-0.2-0.7-0.8-0.5-1.3c4-9.1,12.7-15.2,22.6-16c0.6,0,1,0.4,1.1,0.9
				c0,0.6-0.4,1-0.9,1.1c-9.2,0.7-17.2,6.4-20.9,14.8C6.7,20.2,6.4,20.4,6,20.4"/>
			<path class="st0" d="M13.1,51c-0.2,0-0.5-0.1-0.6-0.2C6.3,45.6,2.8,38,2.8,30c0-2.4,0.3-4.7,0.9-7c0.1-0.5,0.7-0.8,1.2-0.7
				c0.5,0.1,0.8,0.7,0.7,1.2C5,25.6,4.8,27.8,4.8,30c0,7.4,3.3,14.4,9,19.2c0.4,0.4,0.5,1,0.1,1.4C13.7,50.8,13.4,51,13.1,51"/>
			<path class="st0" d="M29.8,57c-4.9,0-9.7-1.3-13.9-3.8c-0.5-0.3-0.6-0.9-0.3-1.4c0.3-0.5,0.9-0.6,1.4-0.3
				c3.9,2.3,8.3,3.6,12.9,3.6s9-1.2,12.9-3.6c0.5-0.3,1.1-0.1,1.4,0.3c0.3,0.5,0.1,1.1-0.3,1.4C39.5,55.6,34.7,57,29.8,57"/>
			<path class="st0" d="M53.5,20.4c-0.4,0-0.7-0.2-0.9-0.6C48.9,11.4,40.8,5.8,31.7,5.1c-0.6,0-1-0.5-0.9-1.1c0-0.5,0.5-1,1.1-0.9
				c9.9,0.8,18.6,6.9,22.6,16c0.2,0.5,0,1.1-0.5,1.3C53.8,20.4,53.7,20.4,53.5,20.4"/>
			<path class="st0" d="M46.4,51c-0.3,0-0.6-0.1-0.8-0.4c-0.4-0.4-0.3-1.1,0.1-1.4c5.7-4.8,9-11.8,9-19.2c0-2.2-0.3-4.4-0.9-6.5
				c-0.1-0.5,0.2-1.1,0.7-1.2c0.5-0.1,1.1,0.2,1.2,0.7c0.6,2.3,0.9,4.7,0.9,7c0,8-3.5,15.6-9.7,20.8C46.8,50.9,46.6,51,46.4,51"/>
			<path class="st0" d="M25.3,8.6c-0.2,0-0.4-0.1-0.6-0.2c-0.5-0.3-0.6-0.9-0.3-1.4l1.8-2.7l-2.7-1.8c-0.5-0.3-0.6-0.9-0.3-1.4
				c0.3-0.5,0.9-0.6,1.4-0.3l3.5,2.4c0.2,0.2,0.4,0.4,0.4,0.6c0,0.3,0,0.5-0.2,0.7l-2.4,3.5C26,8.4,25.7,8.6,25.3,8.6"/>
			<path class="st0" d="M53.5,20.4c-0.1,0-0.3,0-0.4-0.1l-3.9-1.7c-0.5-0.2-0.7-0.8-0.5-1.3c0.2-0.5,0.8-0.7,1.3-0.5l3,1.3l1.3-3
				c0.2-0.5,0.8-0.7,1.3-0.5c0.5,0.2,0.7,0.8,0.5,1.3l-1.7,3.9c-0.1,0.2-0.3,0.4-0.5,0.5C53.8,20.4,53.6,20.4,53.5,20.4"/>
			<path class="st0" d="M46.4,51c-0.6,0-1-0.4-1-1l0-4.3c0-0.6,0.4-1,1-1h0c0.6,0,1,0.4,1,1l0,3.3h3.2c0.6,0,1,0.4,1,1
				c0,0.6-0.4,1-1,1H46.4"/>
			<path class="st0" d="M17.5,57.3c-0.4,0-0.8-0.3-1-0.7l-1.1-4.1c-0.1-0.5,0.2-1.1,0.7-1.2l4.1-1.1c0.5-0.1,1.1,0.2,1.2,0.7
				c0.1,0.5-0.2,1.1-0.7,1.2L17.6,53l0.9,3.1c0.1,0.5-0.2,1.1-0.7,1.2C17.7,57.3,17.6,57.3,17.5,57.3"/>
			<path class="st0" d="M6.8,27.9c-0.3,0-0.7-0.2-0.9-0.5l-1.7-2.8l-2.8,1.6c-0.5,0.3-1.1,0.1-1.4-0.4c-0.3-0.5-0.1-1.1,0.4-1.4
				l3.7-2.1c0.5-0.3,1.1-0.1,1.4,0.4l2.2,3.7c0.3,0.5,0.1,1.1-0.4,1.4C7.2,27.8,7,27.9,6.8,27.9"/>
		</g>
	</g>
</g>
</svg>
