<?xml version="1.0" encoding="utf-8" standalone="no"?>
<!DOCTYPE svg PUBLIC "-//W3C//DTD SVG 1.1//EN"
  "http://www.w3.org/Graphics/SVG/1.1/DTD/svg11.dtd">
<!-- Created with matplotlib (https://matplotlib.org/) -->
<svg height="288pt" version="1.1" viewBox="0 0 432 288" width="432pt" xmlns="http://www.w3.org/2000/svg" xmlns:xlink="http://www.w3.org/1999/xlink">
 <defs>
  <style type="text/css">
*{stroke-linecap:butt;stroke-linejoin:round;}
  </style>
 </defs>
 <g id="figure_1">
  <g id="patch_1">
   <path d="M 0 288 
L 432 288 
L 432 0 
L 0 0 
z
" style="fill:#ffffff;"/>
  </g>
  <g id="axes_1">
   <g id="patch_2">
    <path d="M 54 252 
L 388.8 252 
L 388.8 34.56 
L 54 34.56 
z
" style="fill:#ffffff;"/>
   </g>
   <g id="matplotlib.axis_1">
    <g id="xtick_1">
     <g id="line2d_1">
      <defs>
       <path d="M 0 0 
L 0 3.5 
" id="ma4acd3c0a3" style="stroke:#000000;stroke-width:0.8;"/>
      </defs>
      <g>
       <use style="stroke:#000000;stroke-width:0.8;" x="81.372095" xlink:href="#ma4acd3c0a3" y="252"/>
      </g>
     </g>
     <g id="text_1">
      <!-- −2 -->
      <defs>
       <path d="M 10.59375 35.5 
L 73.1875 35.5 
L 73.1875 27.203125 
L 10.59375 27.203125 
z
" id="DejaVuSans-8722"/>
       <path d="M 19.1875 8.296875 
L 53.609375 8.296875 
L 53.609375 0 
L 7.328125 0 
L 7.328125 8.296875 
Q 12.9375 14.109375 22.625 23.890625 
Q 32.328125 33.6875 34.8125 36.53125 
Q 39.546875 41.84375 41.421875 45.53125 
Q 43.3125 49.21875 43.3125 52.78125 
Q 43.3125 58.59375 39.234375 62.25 
Q 35.15625 65.921875 28.609375 65.921875 
Q 23.96875 65.921875 18.8125 64.3125 
Q 13.671875 62.703125 7.8125 59.421875 
L 7.8125 69.390625 
Q 13.765625 71.78125 18.9375 73 
Q 24.125 74.21875 28.421875 74.21875 
Q 39.75 74.21875 46.484375 68.546875 
Q 53.21875 62.890625 53.21875 53.421875 
Q 53.21875 48.921875 51.53125 44.890625 
Q 49.859375 40.875 45.40625 35.40625 
Q 44.1875 33.984375 37.640625 27.21875 
Q 31.109375 20.453125 19.1875 8.296875 
z
" id="DejaVuSans-50"/>
      </defs>
      <g transform="translate(74.001001 266.598437)scale(0.1 -0.1)">
       <use xlink:href="#DejaVuSans-8722"/>
       <use x="83.789062" xlink:href="#DejaVuSans-50"/>
      </g>
     </g>
    </g>
    <g id="xtick_2">
     <g id="line2d_2">
      <g>
       <use style="stroke:#000000;stroke-width:0.8;" x="151.386047" xlink:href="#ma4acd3c0a3" y="252"/>
      </g>
     </g>
     <g id="text_2">
      <!-- −1 -->
      <defs>
       <path d="M 12.40625 8.296875 
L 28.515625 8.296875 
L 28.515625 63.921875 
L 10.984375 60.40625 
L 10.984375 69.390625 
L 28.421875 72.90625 
L 38.28125 72.90625 
L 38.28125 8.296875 
L 54.390625 8.296875 
L 54.390625 0 
L 12.40625 0 
z
" id="DejaVuSans-49"/>
      </defs>
      <g transform="translate(144.014954 266.598437)scale(0.1 -0.1)">
       <use xlink:href="#DejaVuSans-8722"/>
       <use x="83.789062" xlink:href="#DejaVuSans-49"/>
      </g>
     </g>
    </g>
    <g id="xtick_3">
     <g id="line2d_3">
      <g>
       <use style="stroke:#000000;stroke-width:0.8;" x="221.4" xlink:href="#ma4acd3c0a3" y="252"/>
      </g>
     </g>
     <g id="text_3">
      <!-- 0 -->
      <defs>
       <path d="M 31.78125 66.40625 
Q 24.171875 66.40625 20.328125 58.90625 
Q 16.5 51.421875 16.5 36.375 
Q 16.5 21.390625 20.328125 13.890625 
Q 24.171875 6.390625 31.78125 6.390625 
Q 39.453125 6.390625 43.28125 13.890625 
Q 47.125 21.390625 47.125 36.375 
Q 47.125 51.421875 43.28125 58.90625 
Q 39.453125 66.40625 31.78125 66.40625 
z
M 31.78125 74.21875 
Q 44.046875 74.21875 50.515625 64.515625 
Q 56.984375 54.828125 56.984375 36.375 
Q 56.984375 17.96875 50.515625 8.265625 
Q 44.046875 -1.421875 31.78125 -1.421875 
Q 19.53125 -1.421875 13.0625 8.265625 
Q 6.59375 17.96875 6.59375 36.375 
Q 6.59375 54.828125 13.0625 64.515625 
Q 19.53125 74.21875 31.78125 74.21875 
z
" id="DejaVuSans-48"/>
      </defs>
      <g transform="translate(218.21875 266.598437)scale(0.1 -0.1)">
       <use xlink:href="#DejaVuSans-48"/>
      </g>
     </g>
    </g>
    <g id="xtick_4">
     <g id="line2d_4">
      <g>
       <use style="stroke:#000000;stroke-width:0.8;" x="291.413953" xlink:href="#ma4acd3c0a3" y="252"/>
      </g>
     </g>
     <g id="text_4">
      <!-- 1 -->
      <g transform="translate(288.232703 266.598437)scale(0.1 -0.1)">
       <use xlink:href="#DejaVuSans-49"/>
      </g>
     </g>
    </g>
    <g id="xtick_5">
     <g id="line2d_5">
      <g>
       <use style="stroke:#000000;stroke-width:0.8;" x="361.427905" xlink:href="#ma4acd3c0a3" y="252"/>
      </g>
     </g>
     <g id="text_5">
      <!-- 2 -->
      <g transform="translate(358.246655 266.598437)scale(0.1 -0.1)">
       <use xlink:href="#DejaVuSans-50"/>
      </g>
     </g>
    </g>
    <g id="text_6">
     <!-- Theoretical Quantiles -->
     <defs>
      <path d="M -0.296875 72.90625 
L 61.375 72.90625 
L 61.375 64.59375 
L 35.5 64.59375 
L 35.5 0 
L 25.59375 0 
L 25.59375 64.59375 
L -0.296875 64.59375 
z
" id="DejaVuSans-84"/>
      <path d="M 54.890625 33.015625 
L 54.890625 0 
L 45.90625 0 
L 45.90625 32.71875 
Q 45.90625 40.484375 42.875 44.328125 
Q 39.84375 48.1875 33.796875 48.1875 
Q 26.515625 48.1875 22.3125 43.546875 
Q 18.109375 38.921875 18.109375 30.90625 
L 18.109375 0 
L 9.078125 0 
L 9.078125 75.984375 
L 18.109375 75.984375 
L 18.109375 46.1875 
Q 21.34375 51.125 25.703125 53.5625 
Q 30.078125 56 35.796875 56 
Q 45.21875 56 50.046875 50.171875 
Q 54.890625 44.34375 54.890625 33.015625 
z
" id="DejaVuSans-104"/>
      <path d="M 56.203125 29.59375 
L 56.203125 25.203125 
L 14.890625 25.203125 
Q 15.484375 15.921875 20.484375 11.0625 
Q 25.484375 6.203125 34.421875 6.203125 
Q 39.59375 6.203125 44.453125 7.46875 
Q 49.3125 8.734375 54.109375 11.28125 
L 54.109375 2.78125 
Q 49.265625 0.734375 44.1875 -0.34375 
Q 39.109375 -1.421875 33.890625 -1.421875 
Q 20.796875 -1.421875 13.15625 6.1875 
Q 5.515625 13.8125 5.515625 26.8125 
Q 5.515625 40.234375 12.765625 48.109375 
Q 20.015625 56 32.328125 56 
Q 43.359375 56 49.78125 48.890625 
Q 56.203125 41.796875 56.203125 29.59375 
z
M 47.21875 32.234375 
Q 47.125 39.59375 43.09375 43.984375 
Q 39.0625 48.390625 32.421875 48.390625 
Q 24.90625 48.390625 20.390625 44.140625 
Q 15.875 39.890625 15.1875 32.171875 
z
" id="DejaVuSans-101"/>
      <path d="M 30.609375 48.390625 
Q 23.390625 48.390625 19.1875 42.75 
Q 14.984375 37.109375 14.984375 27.296875 
Q 14.984375 17.484375 19.15625 11.84375 
Q 23.34375 6.203125 30.609375 6.203125 
Q 37.796875 6.203125 41.984375 11.859375 
Q 46.1875 17.53125 46.1875 27.296875 
Q 46.1875 37.015625 41.984375 42.703125 
Q 37.796875 48.390625 30.609375 48.390625 
z
M 30.609375 56 
Q 42.328125 56 49.015625 48.375 
Q 55.71875 40.765625 55.71875 27.296875 
Q 55.71875 13.875 49.015625 6.21875 
Q 42.328125 -1.421875 30.609375 -1.421875 
Q 18.84375 -1.421875 12.171875 6.21875 
Q 5.515625 13.875 5.515625 27.296875 
Q 5.515625 40.765625 12.171875 48.375 
Q 18.84375 56 30.609375 56 
z
" id="DejaVuSans-111"/>
      <path d="M 41.109375 46.296875 
Q 39.59375 47.171875 37.8125 47.578125 
Q 36.03125 48 33.890625 48 
Q 26.265625 48 22.1875 43.046875 
Q 18.109375 38.09375 18.109375 28.8125 
L 18.109375 0 
L 9.078125 0 
L 9.078125 54.6875 
L 18.109375 54.6875 
L 18.109375 46.1875 
Q 20.953125 51.171875 25.484375 53.578125 
Q 30.03125 56 36.53125 56 
Q 37.453125 56 38.578125 55.875 
Q 39.703125 55.765625 41.0625 55.515625 
z
" id="DejaVuSans-114"/>
      <path d="M 18.3125 70.21875 
L 18.3125 54.6875 
L 36.8125 54.6875 
L 36.8125 47.703125 
L 18.3125 47.703125 
L 18.3125 18.015625 
Q 18.3125 11.328125 20.140625 9.421875 
Q 21.96875 7.515625 27.59375 7.515625 
L 36.8125 7.515625 
L 36.8125 0 
L 27.59375 0 
Q 17.1875 0 13.234375 3.875 
Q 9.28125 7.765625 9.28125 18.015625 
L 9.28125 47.703125 
L 2.6875 47.703125 
L 2.6875 54.6875 
L 9.28125 54.6875 
L 9.28125 70.21875 
z
" id="DejaVuSans-116"/>
      <path d="M 9.421875 54.6875 
L 18.40625 54.6875 
L 18.40625 0 
L 9.421875 0 
z
M 9.421875 75.984375 
L 18.40625 75.984375 
L 18.40625 64.59375 
L 9.421875 64.59375 
z
" id="DejaVuSans-105"/>
      <path d="M 48.78125 52.59375 
L 48.78125 44.1875 
Q 44.96875 46.296875 41.140625 47.34375 
Q 37.3125 48.390625 33.40625 48.390625 
Q 24.65625 48.390625 19.8125 42.84375 
Q 14.984375 37.3125 14.984375 27.296875 
Q 14.984375 17.28125 19.8125 11.734375 
Q 24.65625 6.203125 33.40625 6.203125 
Q 37.3125 6.203125 41.140625 7.25 
Q 44.96875 8.296875 48.78125 10.40625 
L 48.78125 2.09375 
Q 45.015625 0.34375 40.984375 -0.53125 
Q 36.96875 -1.421875 32.421875 -1.421875 
Q 20.0625 -1.421875 12.78125 6.34375 
Q 5.515625 14.109375 5.515625 27.296875 
Q 5.515625 40.671875 12.859375 48.328125 
Q 20.21875 56 33.015625 56 
Q 37.15625 56 41.109375 55.140625 
Q 45.0625 54.296875 48.78125 52.59375 
z
" id="DejaVuSans-99"/>
      <path d="M 34.28125 27.484375 
Q 23.390625 27.484375 19.1875 25 
Q 14.984375 22.515625 14.984375 16.5 
Q 14.984375 11.71875 18.140625 8.90625 
Q 21.296875 6.109375 26.703125 6.109375 
Q 34.1875 6.109375 38.703125 11.40625 
Q 43.21875 16.703125 43.21875 25.484375 
L 43.21875 27.484375 
z
M 52.203125 31.203125 
L 52.203125 0 
L 43.21875 0 
L 43.21875 8.296875 
Q 40.140625 3.328125 35.546875 0.953125 
Q 30.953125 -1.421875 24.3125 -1.421875 
Q 15.921875 -1.421875 10.953125 3.296875 
Q 6 8.015625 6 15.921875 
Q 6 25.140625 12.171875 29.828125 
Q 18.359375 34.515625 30.609375 34.515625 
L 43.21875 34.515625 
L 43.21875 35.40625 
Q 43.21875 41.609375 39.140625 45 
Q 35.0625 48.390625 27.6875 48.390625 
Q 23 48.390625 18.546875 47.265625 
Q 14.109375 46.140625 10.015625 43.890625 
L 10.015625 52.203125 
Q 14.9375 54.109375 19.578125 55.046875 
Q 24.21875 56 28.609375 56 
Q 40.484375 56 46.34375 49.84375 
Q 52.203125 43.703125 52.203125 31.203125 
z
" id="DejaVuSans-97"/>
      <path d="M 9.421875 75.984375 
L 18.40625 75.984375 
L 18.40625 0 
L 9.421875 0 
z
" id="DejaVuSans-108"/>
      <path id="DejaVuSans-32"/>
      <path d="M 39.40625 66.21875 
Q 28.65625 66.21875 22.328125 58.203125 
Q 16.015625 50.203125 16.015625 36.375 
Q 16.015625 22.609375 22.328125 14.59375 
Q 28.65625 6.59375 39.40625 6.59375 
Q 50.140625 6.59375 56.421875 14.59375 
Q 62.703125 22.609375 62.703125 36.375 
Q 62.703125 50.203125 56.421875 58.203125 
Q 50.140625 66.21875 39.40625 66.21875 
z
M 53.21875 1.3125 
L 66.21875 -12.890625 
L 54.296875 -12.890625 
L 43.5 -1.21875 
Q 41.890625 -1.3125 41.03125 -1.359375 
Q 40.1875 -1.421875 39.40625 -1.421875 
Q 24.03125 -1.421875 14.8125 8.859375 
Q 5.609375 19.140625 5.609375 36.375 
Q 5.609375 53.65625 14.8125 63.9375 
Q 24.03125 74.21875 39.40625 74.21875 
Q 54.734375 74.21875 63.90625 63.9375 
Q 73.09375 53.65625 73.09375 36.375 
Q 73.09375 23.6875 67.984375 14.640625 
Q 62.890625 5.609375 53.21875 1.3125 
z
" id="DejaVuSans-81"/>
      <path d="M 8.5 21.578125 
L 8.5 54.6875 
L 17.484375 54.6875 
L 17.484375 21.921875 
Q 17.484375 14.15625 20.5 10.265625 
Q 23.53125 6.390625 29.59375 6.390625 
Q 36.859375 6.390625 41.078125 11.03125 
Q 45.3125 15.671875 45.3125 23.6875 
L 45.3125 54.6875 
L 54.296875 54.6875 
L 54.296875 0 
L 45.3125 0 
L 45.3125 8.40625 
Q 42.046875 3.421875 37.71875 1 
Q 33.40625 -1.421875 27.6875 -1.421875 
Q 18.265625 -1.421875 13.375 4.4375 
Q 8.5 10.296875 8.5 21.578125 
z
M 31.109375 56 
z
" id="DejaVuSans-117"/>
      <path d="M 54.890625 33.015625 
L 54.890625 0 
L 45.90625 0 
L 45.90625 32.71875 
Q 45.90625 40.484375 42.875 44.328125 
Q 39.84375 48.1875 33.796875 48.1875 
Q 26.515625 48.1875 22.3125 43.546875 
Q 18.109375 38.921875 18.109375 30.90625 
L 18.109375 0 
L 9.078125 0 
L 9.078125 54.6875 
L 18.109375 54.6875 
L 18.109375 46.1875 
Q 21.34375 51.125 25.703125 53.5625 
Q 30.078125 56 35.796875 56 
Q 45.21875 56 50.046875 50.171875 
Q 54.890625 44.34375 54.890625 33.015625 
z
" id="DejaVuSans-110"/>
      <path d="M 44.28125 53.078125 
L 44.28125 44.578125 
Q 40.484375 46.53125 36.375 47.5 
Q 32.28125 48.484375 27.875 48.484375 
Q 21.1875 48.484375 17.84375 46.4375 
Q 14.5 44.390625 14.5 40.28125 
Q 14.5 37.15625 16.890625 35.375 
Q 19.28125 33.59375 26.515625 31.984375 
L 29.59375 31.296875 
Q 39.15625 29.25 43.1875 25.515625 
Q 47.21875 21.78125 47.21875 15.09375 
Q 47.21875 7.46875 41.1875 3.015625 
Q 35.15625 -1.421875 24.609375 -1.421875 
Q 20.21875 -1.421875 15.453125 -0.5625 
Q 10.6875 0.296875 5.421875 2 
L 5.421875 11.28125 
Q 10.40625 8.6875 15.234375 7.390625 
Q 20.0625 6.109375 24.8125 6.109375 
Q 31.15625 6.109375 34.5625 8.28125 
Q 37.984375 10.453125 37.984375 14.40625 
Q 37.984375 18.0625 35.515625 20.015625 
Q 33.0625 21.96875 24.703125 23.78125 
L 21.578125 24.515625 
Q 13.234375 26.265625 9.515625 29.90625 
Q 5.8125 33.546875 5.8125 39.890625 
Q 5.8125 47.609375 11.28125 51.796875 
Q 16.75 56 26.8125 56 
Q 31.78125 56 36.171875 55.265625 
Q 40.578125 54.546875 44.28125 53.078125 
z
" id="DejaVuSans-115"/>
     </defs>
     <g transform="translate(168.013281 280.276563)scale(0.1 -0.1)">
      <use xlink:href="#DejaVuSans-84"/>
      <use x="61.083984" xlink:href="#DejaVuSans-104"/>
      <use x="124.462891" xlink:href="#DejaVuSans-101"/>
      <use x="185.986328" xlink:href="#DejaVuSans-111"/>
      <use x="247.167969" xlink:href="#DejaVuSans-114"/>
      <use x="288.25" xlink:href="#DejaVuSans-101"/>
      <use x="349.773438" xlink:href="#DejaVuSans-116"/>
      <use x="388.982422" xlink:href="#DejaVuSans-105"/>
      <use x="416.765625" xlink:href="#DejaVuSans-99"/>
      <use x="471.746094" xlink:href="#DejaVuSans-97"/>
      <use x="533.025391" xlink:href="#DejaVuSans-108"/>
      <use x="560.808594" xlink:href="#DejaVuSans-32"/>
      <use x="592.595703" xlink:href="#DejaVuSans-81"/>
      <use x="671.306641" xlink:href="#DejaVuSans-117"/>
      <use x="734.685547" xlink:href="#DejaVuSans-97"/>
      <use x="795.964844" xlink:href="#DejaVuSans-110"/>
      <use x="859.34375" xlink:href="#DejaVuSans-116"/>
      <use x="898.552734" xlink:href="#DejaVuSans-105"/>
      <use x="926.335938" xlink:href="#DejaVuSans-108"/>
      <use x="954.119141" xlink:href="#DejaVuSans-101"/>
      <use x="1015.642578" xlink:href="#DejaVuSans-115"/>
     </g>
    </g>
   </g>
   <g id="matplotlib.axis_2">
    <g id="ytick_1">
     <g id="line2d_6">
      <defs>
       <path d="M 0 0 
L -3.5 0 
" id="mdf8d34ff7e" style="stroke:#000000;stroke-width:0.8;"/>
      </defs>
      <g>
       <use style="stroke:#000000;stroke-width:0.8;" x="54" xlink:href="#mdf8d34ff7e" y="251.104022"/>
      </g>
     </g>
     <g id="text_7">
      <!-- 0.2 -->
      <defs>
       <path d="M 10.6875 12.40625 
L 21 12.40625 
L 21 0 
L 10.6875 0 
z
" id="DejaVuSans-46"/>
      </defs>
      <g transform="translate(31.096875 254.903241)scale(0.1 -0.1)">
       <use xlink:href="#DejaVuSans-48"/>
       <use x="63.623047" xlink:href="#DejaVuSans-46"/>
       <use x="95.410156" xlink:href="#DejaVuSans-50"/>
      </g>
     </g>
    </g>
    <g id="ytick_2">
     <g id="line2d_7">
      <g>
       <use style="stroke:#000000;stroke-width:0.8;" x="54" xlink:href="#mdf8d34ff7e" y="212.467956"/>
      </g>
     </g>
     <g id="text_8">
      <!-- 0.4 -->
      <defs>
       <path d="M 37.796875 64.3125 
L 12.890625 25.390625 
L 37.796875 25.390625 
z
M 35.203125 72.90625 
L 47.609375 72.90625 
L 47.609375 25.390625 
L 58.015625 25.390625 
L 58.015625 17.1875 
L 47.609375 17.1875 
L 47.609375 0 
L 37.796875 0 
L 37.796875 17.1875 
L 4.890625 17.1875 
L 4.890625 26.703125 
z
" id="DejaVuSans-52"/>
      </defs>
      <g transform="translate(31.096875 216.267174)scale(0.1 -0.1)">
       <use xlink:href="#DejaVuSans-48"/>
       <use x="63.623047" xlink:href="#DejaVuSans-46"/>
       <use x="95.410156" xlink:href="#DejaVuSans-52"/>
      </g>
     </g>
    </g>
    <g id="ytick_3">
     <g id="line2d_8">
      <g>
       <use style="stroke:#000000;stroke-width:0.8;" x="54" xlink:href="#mdf8d34ff7e" y="173.831889"/>
      </g>
     </g>
     <g id="text_9">
      <!-- 0.6 -->
      <defs>
       <path d="M 33.015625 40.375 
Q 26.375 40.375 22.484375 35.828125 
Q 18.609375 31.296875 18.609375 23.390625 
Q 18.609375 15.53125 22.484375 10.953125 
Q 26.375 6.390625 33.015625 6.390625 
Q 39.65625 6.390625 43.53125 10.953125 
Q 47.40625 15.53125 47.40625 23.390625 
Q 47.40625 31.296875 43.53125 35.828125 
Q 39.65625 40.375 33.015625 40.375 
z
M 52.59375 71.296875 
L 52.59375 62.3125 
Q 48.875 64.0625 45.09375 64.984375 
Q 41.3125 65.921875 37.59375 65.921875 
Q 27.828125 65.921875 22.671875 59.328125 
Q 17.53125 52.734375 16.796875 39.40625 
Q 19.671875 43.65625 24.015625 45.921875 
Q 28.375 48.1875 33.59375 48.1875 
Q 44.578125 48.1875 50.953125 41.515625 
Q 57.328125 34.859375 57.328125 23.390625 
Q 57.328125 12.15625 50.6875 5.359375 
Q 44.046875 -1.421875 33.015625 -1.421875 
Q 20.359375 -1.421875 13.671875 8.265625 
Q 6.984375 17.96875 6.984375 36.375 
Q 6.984375 53.65625 15.1875 63.9375 
Q 23.390625 74.21875 37.203125 74.21875 
Q 40.921875 74.21875 44.703125 73.484375 
Q 48.484375 72.75 52.59375 71.296875 
z
" id="DejaVuSans-54"/>
      </defs>
      <g transform="translate(31.096875 177.631108)scale(0.1 -0.1)">
       <use xlink:href="#DejaVuSans-48"/>
       <use x="63.623047" xlink:href="#DejaVuSans-46"/>
       <use x="95.410156" xlink:href="#DejaVuSans-54"/>
      </g>
     </g>
    </g>
    <g id="ytick_4">
     <g id="line2d_9">
      <g>
       <use style="stroke:#000000;stroke-width:0.8;" x="54" xlink:href="#mdf8d34ff7e" y="135.195823"/>
      </g>
     </g>
     <g id="text_10">
      <!-- 0.8 -->
      <defs>
       <path d="M 31.78125 34.625 
Q 24.75 34.625 20.71875 30.859375 
Q 16.703125 27.09375 16.703125 20.515625 
Q 16.703125 13.921875 20.71875 10.15625 
Q 24.75 6.390625 31.78125 6.390625 
Q 38.8125 6.390625 42.859375 10.171875 
Q 46.921875 13.96875 46.921875 20.515625 
Q 46.921875 27.09375 42.890625 30.859375 
Q 38.875 34.625 31.78125 34.625 
z
M 21.921875 38.8125 
Q 15.578125 40.375 12.03125 44.71875 
Q 8.5 49.078125 8.5 55.328125 
Q 8.5 64.0625 14.71875 69.140625 
Q 20.953125 74.21875 31.78125 74.21875 
Q 42.671875 74.21875 48.875 69.140625 
Q 55.078125 64.0625 55.078125 55.328125 
Q 55.078125 49.078125 51.53125 44.71875 
Q 48 40.375 41.703125 38.8125 
Q 48.828125 37.15625 52.796875 32.3125 
Q 56.78125 27.484375 56.78125 20.515625 
Q 56.78125 9.90625 50.3125 4.234375 
Q 43.84375 -1.421875 31.78125 -1.421875 
Q 19.734375 -1.421875 13.25 4.234375 
Q 6.78125 9.90625 6.78125 20.515625 
Q 6.78125 27.484375 10.78125 32.3125 
Q 14.796875 37.15625 21.921875 38.8125 
z
M 18.3125 54.390625 
Q 18.3125 48.734375 21.84375 45.5625 
Q 25.390625 42.390625 31.78125 42.390625 
Q 38.140625 42.390625 41.71875 45.5625 
Q 45.3125 48.734375 45.3125 54.390625 
Q 45.3125 60.0625 41.71875 63.234375 
Q 38.140625 66.40625 31.78125 66.40625 
Q 25.390625 66.40625 21.84375 63.234375 
Q 18.3125 60.0625 18.3125 54.390625 
z
" id="DejaVuSans-56"/>
      </defs>
      <g transform="translate(31.096875 138.995042)scale(0.1 -0.1)">
       <use xlink:href="#DejaVuSans-48"/>
       <use x="63.623047" xlink:href="#DejaVuSans-46"/>
       <use x="95.410156" xlink:href="#DejaVuSans-56"/>
      </g>
     </g>
    </g>
    <g id="ytick_5">
     <g id="line2d_10">
      <g>
       <use style="stroke:#000000;stroke-width:0.8;" x="54" xlink:href="#mdf8d34ff7e" y="96.559757"/>
      </g>
     </g>
     <g id="text_11">
      <!-- 1.0 -->
      <g transform="translate(31.096875 100.358976)scale(0.1 -0.1)">
       <use xlink:href="#DejaVuSans-49"/>
       <use x="63.623047" xlink:href="#DejaVuSans-46"/>
       <use x="95.410156" xlink:href="#DejaVuSans-48"/>
      </g>
     </g>
    </g>
    <g id="ytick_6">
     <g id="line2d_11">
      <g>
       <use style="stroke:#000000;stroke-width:0.8;" x="54" xlink:href="#mdf8d34ff7e" y="57.923691"/>
      </g>
     </g>
     <g id="text_12">
      <!-- 1.2 -->
      <g transform="translate(31.096875 61.722909)scale(0.1 -0.1)">
       <use xlink:href="#DejaVuSans-49"/>
       <use x="63.623047" xlink:href="#DejaVuSans-46"/>
       <use x="95.410156" xlink:href="#DejaVuSans-50"/>
      </g>
     </g>
    </g>
    <g id="text_13">
     <!-- Sample Quantiles -->
     <defs>
      <path d="M 53.515625 70.515625 
L 53.515625 60.890625 
Q 47.90625 63.578125 42.921875 64.890625 
Q 37.9375 66.21875 33.296875 66.21875 
Q 25.25 66.21875 20.875 63.09375 
Q 16.5 59.96875 16.5 54.203125 
Q 16.5 49.359375 19.40625 46.890625 
Q 22.3125 44.4375 30.421875 42.921875 
L 36.375 41.703125 
Q 47.40625 39.59375 52.65625 34.296875 
Q 57.90625 29 57.90625 20.125 
Q 57.90625 9.515625 50.796875 4.046875 
Q 43.703125 -1.421875 29.984375 -1.421875 
Q 24.8125 -1.421875 18.96875 -0.25 
Q 13.140625 0.921875 6.890625 3.21875 
L 6.890625 13.375 
Q 12.890625 10.015625 18.65625 8.296875 
Q 24.421875 6.59375 29.984375 6.59375 
Q 38.421875 6.59375 43.015625 9.90625 
Q 47.609375 13.234375 47.609375 19.390625 
Q 47.609375 24.75 44.3125 27.78125 
Q 41.015625 30.8125 33.5 32.328125 
L 27.484375 33.5 
Q 16.453125 35.6875 11.515625 40.375 
Q 6.59375 45.0625 6.59375 53.421875 
Q 6.59375 63.09375 13.40625 68.65625 
Q 20.21875 74.21875 32.171875 74.21875 
Q 37.3125 74.21875 42.625 73.28125 
Q 47.953125 72.359375 53.515625 70.515625 
z
" id="DejaVuSans-83"/>
      <path d="M 52 44.1875 
Q 55.375 50.25 60.0625 53.125 
Q 64.75 56 71.09375 56 
Q 79.640625 56 84.28125 50.015625 
Q 88.921875 44.046875 88.921875 33.015625 
L 88.921875 0 
L 79.890625 0 
L 79.890625 32.71875 
Q 79.890625 40.578125 77.09375 44.375 
Q 74.3125 48.1875 68.609375 48.1875 
Q 61.625 48.1875 57.5625 43.546875 
Q 53.515625 38.921875 53.515625 30.90625 
L 53.515625 0 
L 44.484375 0 
L 44.484375 32.71875 
Q 44.484375 40.625 41.703125 44.40625 
Q 38.921875 48.1875 33.109375 48.1875 
Q 26.21875 48.1875 22.15625 43.53125 
Q 18.109375 38.875 18.109375 30.90625 
L 18.109375 0 
L 9.078125 0 
L 9.078125 54.6875 
L 18.109375 54.6875 
L 18.109375 46.1875 
Q 21.1875 51.21875 25.484375 53.609375 
Q 29.78125 56 35.6875 56 
Q 41.65625 56 45.828125 52.96875 
Q 50 49.953125 52 44.1875 
z
" id="DejaVuSans-109"/>
      <path d="M 18.109375 8.203125 
L 18.109375 -20.796875 
L 9.078125 -20.796875 
L 9.078125 54.6875 
L 18.109375 54.6875 
L 18.109375 46.390625 
Q 20.953125 51.265625 25.265625 53.625 
Q 29.59375 56 35.59375 56 
Q 45.5625 56 51.78125 48.09375 
Q 58.015625 40.1875 58.015625 27.296875 
Q 58.015625 14.40625 51.78125 6.484375 
Q 45.5625 -1.421875 35.59375 -1.421875 
Q 29.59375 -1.421875 25.265625 0.953125 
Q 20.953125 3.328125 18.109375 8.203125 
z
M 48.6875 27.296875 
Q 48.6875 37.203125 44.609375 42.84375 
Q 40.53125 48.484375 33.40625 48.484375 
Q 26.265625 48.484375 22.1875 42.84375 
Q 18.109375 37.203125 18.109375 27.296875 
Q 18.109375 17.390625 22.1875 11.75 
Q 26.265625 6.109375 33.40625 6.109375 
Q 40.53125 6.109375 44.609375 11.75 
Q 48.6875 17.390625 48.6875 27.296875 
z
" id="DejaVuSans-112"/>
     </defs>
     <g transform="translate(25.017187 187.374531)rotate(-90)scale(0.1 -0.1)">
      <use xlink:href="#DejaVuSans-83"/>
      <use x="63.476562" xlink:href="#DejaVuSans-97"/>
      <use x="124.755859" xlink:href="#DejaVuSans-109"/>
      <use x="222.167969" xlink:href="#DejaVuSans-112"/>
      <use x="285.644531" xlink:href="#DejaVuSans-108"/>
      <use x="313.427734" xlink:href="#DejaVuSans-101"/>
      <use x="374.951172" xlink:href="#DejaVuSans-32"/>
      <use x="406.738281" xlink:href="#DejaVuSans-81"/>
      <use x="485.449219" xlink:href="#DejaVuSans-117"/>
      <use x="548.828125" xlink:href="#DejaVuSans-97"/>
      <use x="610.107422" xlink:href="#DejaVuSans-110"/>
      <use x="673.486328" xlink:href="#DejaVuSans-116"/>
      <use x="712.695312" xlink:href="#DejaVuSans-105"/>
      <use x="740.478516" xlink:href="#DejaVuSans-108"/>
      <use x="768.261719" xlink:href="#DejaVuSans-101"/>
      <use x="829.785156" xlink:href="#DejaVuSans-115"/>
     </g>
    </g>
   </g>
   <g id="line2d_12">
    <defs>
     <path d="M 0 3 
C 0.795609 3 1.55874 2.683901 2.12132 2.12132 
C 2.683901 1.55874 3 0.795609 3 0 
C 3 -0.795609 2.683901 -1.55874 2.12132 -2.12132 
C 1.55874 -2.683901 0.795609 -3 0 -3 
C -0.795609 -3 -1.55874 -2.683901 -2.12132 -2.12132 
C -2.683901 -1.55874 -3 -0.795609 -3 0 
C -3 0.795609 -2.683901 1.55874 -2.12132 2.12132 
C -1.55874 2.683901 -0.795609 3 0 3 
z
" id="m90fe4cbab3" style="stroke:#0000ff;"/>
    </defs>
    <g clip-path="url(#pb129517a4d)">
     <use style="fill:#0000ff;stroke:#0000ff;" x="60.438462" xlink:href="#m90fe4cbab3" y="241.445005"/>
     <use style="fill:#0000ff;stroke:#0000ff;" x="79.719376" xlink:href="#m90fe4cbab3" y="241.445005"/>
     <use style="fill:#0000ff;stroke:#0000ff;" x="91.972467" xlink:href="#m90fe4cbab3" y="241.445005"/>
     <use style="fill:#0000ff;stroke:#0000ff;" x="101.202262" xlink:href="#m90fe4cbab3" y="241.445005"/>
     <use style="fill:#0000ff;stroke:#0000ff;" x="108.718896" xlink:href="#m90fe4cbab3" y="241.445005"/>
     <use style="fill:#0000ff;stroke:#0000ff;" x="115.12378" xlink:href="#m90fe4cbab3" y="241.445005"/>
     <use style="fill:#0000ff;stroke:#0000ff;" x="120.745489" xlink:href="#m90fe4cbab3" y="193.149922"/>
     <use style="fill:#0000ff;stroke:#0000ff;" x="125.784145" xlink:href="#m90fe4cbab3" y="193.149922"/>
     <use style="fill:#0000ff;stroke:#0000ff;" x="130.371119" xlink:href="#m90fe4cbab3" y="193.149922"/>
     <use style="fill:#0000ff;stroke:#0000ff;" x="134.597531" xlink:href="#m90fe4cbab3" y="193.149922"/>
     <use style="fill:#0000ff;stroke:#0000ff;" x="138.529311" xlink:href="#m90fe4cbab3" y="193.149922"/>
     <use style="fill:#0000ff;stroke:#0000ff;" x="142.215787" xlink:href="#m90fe4cbab3" y="193.149922"/>
     <use style="fill:#0000ff;stroke:#0000ff;" x="145.69489" xlink:href="#m90fe4cbab3" y="193.149922"/>
     <use style="fill:#0000ff;stroke:#0000ff;" x="148.996452" xlink:href="#m90fe4cbab3" y="193.149922"/>
     <use style="fill:#0000ff;stroke:#0000ff;" x="152.144394" xlink:href="#m90fe4cbab3" y="193.149922"/>
     <use style="fill:#0000ff;stroke:#0000ff;" x="155.158212" xlink:href="#m90fe4cbab3" y="193.149922"/>
     <use style="fill:#0000ff;stroke:#0000ff;" x="158.054024" xlink:href="#m90fe4cbab3" y="193.149922"/>
     <use style="fill:#0000ff;stroke:#0000ff;" x="160.845327" xlink:href="#m90fe4cbab3" y="193.149922"/>
     <use style="fill:#0000ff;stroke:#0000ff;" x="163.543547" xlink:href="#m90fe4cbab3" y="193.149922"/>
     <use style="fill:#0000ff;stroke:#0000ff;" x="166.158455" xlink:href="#m90fe4cbab3" y="193.149922"/>
     <use style="fill:#0000ff;stroke:#0000ff;" x="168.698482" xlink:href="#m90fe4cbab3" y="193.149922"/>
     <use style="fill:#0000ff;stroke:#0000ff;" x="171.170964" xlink:href="#m90fe4cbab3" y="193.149922"/>
     <use style="fill:#0000ff;stroke:#0000ff;" x="173.582333" xlink:href="#m90fe4cbab3" y="193.149922"/>
     <use style="fill:#0000ff;stroke:#0000ff;" x="175.938266" xlink:href="#m90fe4cbab3" y="144.85484"/>
     <use style="fill:#0000ff;stroke:#0000ff;" x="178.243809" xlink:href="#m90fe4cbab3" y="144.85484"/>
     <use style="fill:#0000ff;stroke:#0000ff;" x="180.503471" xlink:href="#m90fe4cbab3" y="144.85484"/>
     <use style="fill:#0000ff;stroke:#0000ff;" x="182.721311" xlink:href="#m90fe4cbab3" y="144.85484"/>
     <use style="fill:#0000ff;stroke:#0000ff;" x="184.900996" xlink:href="#m90fe4cbab3" y="144.85484"/>
     <use style="fill:#0000ff;stroke:#0000ff;" x="187.045862" xlink:href="#m90fe4cbab3" y="144.85484"/>
     <use style="fill:#0000ff;stroke:#0000ff;" x="189.158957" xlink:href="#m90fe4cbab3" y="144.85484"/>
     <use style="fill:#0000ff;stroke:#0000ff;" x="191.243079" xlink:href="#m90fe4cbab3" y="144.85484"/>
     <use style="fill:#0000ff;stroke:#0000ff;" x="193.300812" xlink:href="#m90fe4cbab3" y="144.85484"/>
     <use style="fill:#0000ff;stroke:#0000ff;" x="195.33455" xlink:href="#m90fe4cbab3" y="144.85484"/>
     <use style="fill:#0000ff;stroke:#0000ff;" x="197.346526" xlink:href="#m90fe4cbab3" y="144.85484"/>
     <use style="fill:#0000ff;stroke:#0000ff;" x="199.338829" xlink:href="#m90fe4cbab3" y="144.85484"/>
     <use style="fill:#0000ff;stroke:#0000ff;" x="201.313423" xlink:href="#m90fe4cbab3" y="144.85484"/>
     <use style="fill:#0000ff;stroke:#0000ff;" x="203.272165" xlink:href="#m90fe4cbab3" y="144.85484"/>
     <use style="fill:#0000ff;stroke:#0000ff;" x="205.216818" xlink:href="#m90fe4cbab3" y="144.85484"/>
     <use style="fill:#0000ff;stroke:#0000ff;" x="207.149064" xlink:href="#m90fe4cbab3" y="144.85484"/>
     <use style="fill:#0000ff;stroke:#0000ff;" x="209.070514" xlink:href="#m90fe4cbab3" y="144.85484"/>
     <use style="fill:#0000ff;stroke:#0000ff;" x="210.982721" xlink:href="#m90fe4cbab3" y="144.85484"/>
     <use style="fill:#0000ff;stroke:#0000ff;" x="212.887187" xlink:href="#m90fe4cbab3" y="144.85484"/>
     <use style="fill:#0000ff;stroke:#0000ff;" x="214.785374" xlink:href="#m90fe4cbab3" y="144.85484"/>
     <use style="fill:#0000ff;stroke:#0000ff;" x="216.67871" xlink:href="#m90fe4cbab3" y="144.85484"/>
     <use style="fill:#0000ff;stroke:#0000ff;" x="218.5686" xlink:href="#m90fe4cbab3" y="144.85484"/>
     <use style="fill:#0000ff;stroke:#0000ff;" x="220.456429" xlink:href="#m90fe4cbab3" y="144.85484"/>
     <use style="fill:#0000ff;stroke:#0000ff;" x="222.343571" xlink:href="#m90fe4cbab3" y="144.85484"/>
     <use style="fill:#0000ff;stroke:#0000ff;" x="224.2314" xlink:href="#m90fe4cbab3" y="144.85484"/>
     <use style="fill:#0000ff;stroke:#0000ff;" x="226.12129" xlink:href="#m90fe4cbab3" y="144.85484"/>
     <use style="fill:#0000ff;stroke:#0000ff;" x="228.014626" xlink:href="#m90fe4cbab3" y="144.85484"/>
     <use style="fill:#0000ff;stroke:#0000ff;" x="229.912813" xlink:href="#m90fe4cbab3" y="144.85484"/>
     <use style="fill:#0000ff;stroke:#0000ff;" x="231.817279" xlink:href="#m90fe4cbab3" y="144.85484"/>
     <use style="fill:#0000ff;stroke:#0000ff;" x="233.729486" xlink:href="#m90fe4cbab3" y="144.85484"/>
     <use style="fill:#0000ff;stroke:#0000ff;" x="235.650936" xlink:href="#m90fe4cbab3" y="144.85484"/>
     <use style="fill:#0000ff;stroke:#0000ff;" x="237.583182" xlink:href="#m90fe4cbab3" y="144.85484"/>
     <use style="fill:#0000ff;stroke:#0000ff;" x="239.527835" xlink:href="#m90fe4cbab3" y="144.85484"/>
     <use style="fill:#0000ff;stroke:#0000ff;" x="241.486577" xlink:href="#m90fe4cbab3" y="144.85484"/>
     <use style="fill:#0000ff;stroke:#0000ff;" x="243.461171" xlink:href="#m90fe4cbab3" y="144.85484"/>
     <use style="fill:#0000ff;stroke:#0000ff;" x="245.453474" xlink:href="#m90fe4cbab3" y="144.85484"/>
     <use style="fill:#0000ff;stroke:#0000ff;" x="247.46545" xlink:href="#m90fe4cbab3" y="144.85484"/>
     <use style="fill:#0000ff;stroke:#0000ff;" x="249.499188" xlink:href="#m90fe4cbab3" y="96.559757"/>
     <use style="fill:#0000ff;stroke:#0000ff;" x="251.556921" xlink:href="#m90fe4cbab3" y="96.559757"/>
     <use style="fill:#0000ff;stroke:#0000ff;" x="253.641043" xlink:href="#m90fe4cbab3" y="96.559757"/>
     <use style="fill:#0000ff;stroke:#0000ff;" x="255.754138" xlink:href="#m90fe4cbab3" y="96.559757"/>
     <use style="fill:#0000ff;stroke:#0000ff;" x="257.899004" xlink:href="#m90fe4cbab3" y="96.559757"/>
     <use style="fill:#0000ff;stroke:#0000ff;" x="260.078689" xlink:href="#m90fe4cbab3" y="96.559757"/>
     <use style="fill:#0000ff;stroke:#0000ff;" x="262.296529" xlink:href="#m90fe4cbab3" y="96.559757"/>
     <use style="fill:#0000ff;stroke:#0000ff;" x="264.556191" xlink:href="#m90fe4cbab3" y="96.559757"/>
     <use style="fill:#0000ff;stroke:#0000ff;" x="266.861734" xlink:href="#m90fe4cbab3" y="96.559757"/>
     <use style="fill:#0000ff;stroke:#0000ff;" x="269.217667" xlink:href="#m90fe4cbab3" y="96.559757"/>
     <use style="fill:#0000ff;stroke:#0000ff;" x="271.629036" xlink:href="#m90fe4cbab3" y="96.559757"/>
     <use style="fill:#0000ff;stroke:#0000ff;" x="274.101518" xlink:href="#m90fe4cbab3" y="96.559757"/>
     <use style="fill:#0000ff;stroke:#0000ff;" x="276.641545" xlink:href="#m90fe4cbab3" y="96.559757"/>
     <use style="fill:#0000ff;stroke:#0000ff;" x="279.256453" xlink:href="#m90fe4cbab3" y="96.559757"/>
     <use style="fill:#0000ff;stroke:#0000ff;" x="281.954673" xlink:href="#m90fe4cbab3" y="96.559757"/>
     <use style="fill:#0000ff;stroke:#0000ff;" x="284.745976" xlink:href="#m90fe4cbab3" y="96.559757"/>
     <use style="fill:#0000ff;stroke:#0000ff;" x="287.641788" xlink:href="#m90fe4cbab3" y="96.559757"/>
     <use style="fill:#0000ff;stroke:#0000ff;" x="290.655606" xlink:href="#m90fe4cbab3" y="96.559757"/>
     <use style="fill:#0000ff;stroke:#0000ff;" x="293.803548" xlink:href="#m90fe4cbab3" y="96.559757"/>
     <use style="fill:#0000ff;stroke:#0000ff;" x="297.10511" xlink:href="#m90fe4cbab3" y="96.559757"/>
     <use style="fill:#0000ff;stroke:#0000ff;" x="300.584213" xlink:href="#m90fe4cbab3" y="96.559757"/>
     <use style="fill:#0000ff;stroke:#0000ff;" x="304.270689" xlink:href="#m90fe4cbab3" y="96.559757"/>
     <use style="fill:#0000ff;stroke:#0000ff;" x="308.202469" xlink:href="#m90fe4cbab3" y="96.559757"/>
     <use style="fill:#0000ff;stroke:#0000ff;" x="312.428881" xlink:href="#m90fe4cbab3" y="96.559757"/>
     <use style="fill:#0000ff;stroke:#0000ff;" x="317.015855" xlink:href="#m90fe4cbab3" y="96.559757"/>
     <use style="fill:#0000ff;stroke:#0000ff;" x="322.054511" xlink:href="#m90fe4cbab3" y="96.559757"/>
     <use style="fill:#0000ff;stroke:#0000ff;" x="327.67622" xlink:href="#m90fe4cbab3" y="96.559757"/>
     <use style="fill:#0000ff;stroke:#0000ff;" x="334.081104" xlink:href="#m90fe4cbab3" y="96.559757"/>
     <use style="fill:#0000ff;stroke:#0000ff;" x="341.597738" xlink:href="#m90fe4cbab3" y="96.559757"/>
     <use style="fill:#0000ff;stroke:#0000ff;" x="350.827533" xlink:href="#m90fe4cbab3" y="96.559757"/>
     <use style="fill:#0000ff;stroke:#0000ff;" x="363.080624" xlink:href="#m90fe4cbab3" y="96.559757"/>
     <use style="fill:#0000ff;stroke:#0000ff;" x="382.361538" xlink:href="#m90fe4cbab3" y="96.559757"/>
    </g>
   </g>
   <g id="line2d_13">
    <path clip-path="url(#pb129517a4d)" d="M 60.438462 242.116364 
L 79.719376 230.277166 
L 91.972467 222.753313 
L 101.202262 217.085876 
L 108.718896 212.470383 
L 115.12378 208.537547 
L 120.745489 205.085609 
L 125.784145 201.991687 
L 130.371119 199.175114 
L 134.597531 196.57994 
L 138.529311 194.165681 
L 142.215787 191.902048 
L 145.69489 189.76575 
L 148.996452 187.738468 
L 152.144394 185.805514 
L 155.158212 183.954918 
L 158.054024 182.176782 
L 160.845327 180.462818 
L 163.543547 178.806011 
L 166.158455 177.200361 
L 168.698482 175.64069 
L 171.170964 174.122494 
L 173.582333 172.641824 
L 175.938266 171.195193 
L 178.243809 169.779505 
L 180.503471 168.391988 
L 182.721311 167.030152 
L 184.900996 165.691744 
L 187.045862 164.374717 
L 189.158957 163.077198 
L 191.243079 161.79747 
L 193.300812 160.533945 
L 195.33455 159.285154 
L 197.346526 158.049726 
L 199.338829 156.826379 
L 201.313423 155.613904 
L 203.272165 154.411164 
L 205.216818 153.217075 
L 207.149064 152.030604 
L 209.070514 150.850763 
L 210.982721 149.676597 
L 212.887187 148.507184 
L 214.785374 147.341626 
L 216.67871 146.179047 
L 218.5686 145.018585 
L 220.456429 143.859388 
L 222.343571 142.700612 
L 224.2314 141.541415 
L 226.12129 140.380953 
L 228.014626 139.218374 
L 229.912813 138.052816 
L 231.817279 136.883403 
L 233.729486 135.709237 
L 235.650936 134.529396 
L 237.583182 133.342925 
L 239.527835 132.148836 
L 241.486577 130.946096 
L 243.461171 129.733621 
L 245.453474 128.510274 
L 247.46545 127.274846 
L 249.499188 126.026055 
L 251.556921 124.76253 
L 253.641043 123.482802 
L 255.754138 122.185283 
L 257.899004 120.868256 
L 260.078689 119.529848 
L 262.296529 118.168012 
L 264.556191 116.780495 
L 266.861734 115.364807 
L 269.217667 113.918176 
L 271.629036 112.437506 
L 274.101518 110.91931 
L 276.641545 109.359639 
L 279.256453 107.753989 
L 281.954673 106.097182 
L 284.745976 104.383218 
L 287.641788 102.605082 
L 290.655606 100.754486 
L 293.803548 98.821532 
L 297.10511 96.79425 
L 300.584213 94.657952 
L 304.270689 92.394319 
L 308.202469 89.98006 
L 312.428881 87.384886 
L 317.015855 84.568313 
L 322.054511 81.474391 
L 327.67622 78.022453 
L 334.081104 74.089617 
L 341.597738 69.474124 
L 350.827533 63.806687 
L 363.080624 56.282834 
L 382.361538 44.443636 
" style="fill:none;stroke:#ff0000;stroke-linecap:square;stroke-width:1.5;"/>
   </g>
   <g id="patch_3">
    <path d="M 54 252 
L 54 34.56 
" style="fill:none;stroke:#000000;stroke-linecap:square;stroke-linejoin:miter;stroke-width:0.8;"/>
   </g>
   <g id="patch_4">
    <path d="M 388.8 252 
L 388.8 34.56 
" style="fill:none;stroke:#000000;stroke-linecap:square;stroke-linejoin:miter;stroke-width:0.8;"/>
   </g>
   <g id="patch_5">
    <path d="M 54 252 
L 388.8 252 
" style="fill:none;stroke:#000000;stroke-linecap:square;stroke-linejoin:miter;stroke-width:0.8;"/>
   </g>
   <g id="patch_6">
    <path d="M 54 34.56 
L 388.8 34.56 
" style="fill:none;stroke:#000000;stroke-linecap:square;stroke-linejoin:miter;stroke-width:0.8;"/>
   </g>
  </g>
 </g>
 <defs>
  <clipPath id="pb129517a4d">
   <rect height="217.44" width="334.8" x="54" y="34.56"/>
  </clipPath>
 </defs>
</svg>
